<?xml version="1.0" standalone="no"?>
<!DOCTYPE svg PUBLIC "-//W3C//DTD SVG 20010904//EN"
 "http://www.w3.org/TR/2001/REC-SVG-20010904/DTD/svg10.dtd">
<svg version="1.0" xmlns="http://www.w3.org/2000/svg"
 width="387.000000pt" height="387.000000pt" viewBox="0 0 387.000000 387.000000"
 preserveAspectRatio="xMidYMid meet">
<metadata>
Created by potrace 1.11, written by Peter Selinger 2001-2013
</metadata>
<g transform="translate(0.000000,387.000000) scale(0.100000,-0.100000)"
fill="#000000" stroke="none">
<path d="M450 3854 c-161 -42 -312 -162 -383 -304 -71 -145 -67 -39 -67 -1615
0 -1558 -3 -1471 60 -1600 68 -140 208 -262 352 -307 l73 -23 1450 0 1450 0
73 23 c144 45 284 167 352 307 63 129 60 42 60 1600 0 1576 4 1470 -67 1615
-72 144 -223 263 -388 305 -87 22 -2880 21 -2965 -1z m1280 -951 c59 -19 123
-57 171 -100 l39 -35 46 42 c124 114 331 147 479 75 225 -109 300 -374 175
-620 -49 -97 -125 -191 -280 -346 -140 -141 -409 -389 -421 -389 -10 0 -267
235 -402 369 -137 134 -235 252 -285 341 -114 202 -99 409 39 555 111 117 281
159 439 108z"/>
</g>
</svg>
